<svg 
 xmlns="http://www.w3.org/2000/svg"
 xmlns:xlink="http://www.w3.org/1999/xlink"
 width="22px" height="22px">
<path fill-rule="evenodd"  opacity="0.302"
 d="M12.719,0.260 C7.799,0.260 3.774,4.263 3.774,9.205 C3.774,11.627 4.718,13.801 6.259,15.432 C5.811,16.520 5.464,17.656 5.215,18.645 C4.917,19.831 5.811,21.017 7.054,21.017 L18.384,21.017 C19.626,21.017 20.521,19.831 20.222,18.645 C19.974,17.656 19.626,16.520 19.179,15.432 C20.719,13.801 21.663,11.627 21.663,9.205 C21.663,4.263 17.638,0.260 12.719,0.260 L12.719,0.260 Z"/>
<path fill-rule="evenodd"  
 d="M14.808,15.800 C16.260,14.271 17.111,12.232 17.111,9.989 C17.111,5.350 13.406,1.629 8.850,1.629 C4.293,1.629 0.588,5.350 0.588,9.989 C0.588,12.232 1.489,14.271 2.891,15.800 C2.491,16.819 2.190,17.890 1.940,18.807 C1.690,19.929 2.491,20.999 3.642,20.999 L14.057,20.999 C15.209,20.999 16.010,19.929 15.759,18.807 C15.509,17.890 15.209,16.819 14.808,15.800 ZM14.057,8.562 L10.652,12.028 C10.352,12.334 9.901,12.334 9.601,12.028 L6.947,9.275 L4.193,12.079 C3.843,12.385 3.392,12.385 3.092,12.079 C2.791,11.773 2.791,11.314 3.092,11.008 L6.396,7.644 C6.697,7.338 7.147,7.338 7.448,7.644 L10.152,10.397 L13.006,7.491 C13.306,7.185 13.757,7.185 14.057,7.491 C14.358,7.797 14.358,8.256 14.057,8.562 Z"/>
</svg>